# xmcd CD database file generated by Grip 2.96
# 
# Track frame offsets:
#       150
#       7675
#       11457
#       22272
#       34308
#       46241
#       58231
#       70214
#       90128
#       109346
#       122214
#       132143
# 
# Disc length: 1930 seconds
# 
# Revision: 0
# Processed by: cddbd v1.4PL0 Copyright (c) Steve Scherf et al.
# Submitted via: Grip 2.96
# 
DISCID=9707880c
DTITLE=PopTop Software - Railroad Tycoon II Blues Compilation
DYEAR=1900
DGENRE=
TTITLE0=Music Production
TTITLE1=Train O'Monica
TTITLE2=Tired Ole Blues
TTITLE3=Lazy Slide Pickin
TTITLE4=The Grind
TTITLE5=Happy Go Lucky
TTITLE6=Torchered Blues
TTITLE7=Main Screen
TTITLE8=Train Derail
TTITLE9=Wicked Blues
TTITLE10=Riches Steel
TTITLE11=I am the Pourch
EXTD=
EXTT0=
EXTT1=
EXTT2=
EXTT3=
EXTT4=
EXTT5=
EXTT6=
EXTT7=
EXTT8=
EXTT9=
EXTT10=
EXTT11=
PLAYORDER=
